<svg xmlns="http://www.w3.org/2000/svg" width="45" height="16" viewBox="0 0 45 16"><g><g><path fill="#2c82c9" d="M38.002 45.99C17.052 45.99.009 28.95.009 8.007c0-20.953 17.042-37.998 37.993-37.998 20.948 0 37.988 17.045 37.988 37.998-.002 20.944-17.043 37.983-37.988 37.983zm0-73.669c-19.674 0-35.68 16.01-35.68 35.686 0 19.67 16.006 35.673 35.68 35.673 19.671 0 35.676-16.003 35.676-35.673-.003-19.677-16.005-35.686-35.676-35.686zm11.041 50.183a1.15 1.15 0 0 1-.89-.42L37.111 8.74a1.154 1.154 0 0 1-.266-.735v-22.17a1.157 1.157 0 0 1 2.313 0V7.591l10.776 13.022a1.153 1.153 0 0 1-.89 1.891z"/></g></g></svg>