<svg xmlns="http://www.w3.org/2000/svg" width="78" height="58" viewBox="0 0 78 58"><g><g><path fill="#9f0088" d="M43.926 1.637a3.16 3.16 0 0 1 .463 1.684v52.184c-9.05-9.362-22.167-10.976-29.997-10.993-1.857-.005-3.368-1.496-3.368-3.325V-8.677c0-.892.352-1.73.99-2.36a3.334 3.334 0 0 1 2.357-.965h.008c7.847.018 22.12 1.815 29.547 13.639zm35.682 42.874c-7.83.018-20.947 1.632-29.997 10.994V3.32c0-.62.16-1.203.462-1.684 7.428-11.824 21.7-13.621 29.548-13.64h.008c.888 0 1.725.343 2.356.966.639.629.99 1.468.99 2.36v49.864c0 1.829-1.51 3.32-3.367 3.324zM93.999 2.822V55.67c0 1.017-.46 1.963-1.264 2.597a3.389 3.389 0 0 1-2.852.644c-8.058-1.817-22.197-3.927-35.61-.68 7.756-7.257 18.706-8.54 25.347-8.556 4.73-.012 8.577-3.818 8.577-8.487V-.503h2.44C92.49-.503 94 .99 93.998 2.822zM14.38 49.674c6.641.015 17.592 1.299 25.346 8.554-13.412-3.245-27.551-1.135-35.61.68a3.384 3.384 0 0 1-2.851-.642A3.294 3.294 0 0 1 0 55.668V2.822C0 .99 1.509-.503 3.363-.503h2.439v41.69c0 4.669 3.848 8.475 8.577 8.487z"/></g></g></svg>