<svg xmlns="http://www.w3.org/2000/svg" width="63" height="71" viewBox="0 0 63 71"><g><g><path fill="#2cc990" d="M68.997 68.232c0 2.08-1.708 3.765-3.816 3.765H3.818c-2.107 0-3.815-1.685-3.815-3.765 0-1.528.92-2.84 2.244-3.432V32.265c0-1.698 1.394-3.075 3.114-3.075h14.792v-8.852a2.3 2.3 0 0 1 1.199-2.014l12.01-6.612c.066-.036.135-.068.203-.097V.92c0-.51.419-.922.935-.922s.934.412.934.922v.417h6.468c.516 0 .934.413.934.923v4.659a.93.93 0 0 1-.934.923h-6.468v3.773c.069.03.137.061.204.097l12.01 6.612a2.3 2.3 0 0 1 1.198 2.014v8.852h14.792c1.72 0 3.115 1.377 3.115 3.075V64.8a3.763 3.763 0 0 1 2.244 3.432zM54.713 39.907v3.35c0 .989.812 1.79 1.815 1.79h3.393a1.803 1.803 0 0 0 1.814-1.79v-3.35c0-.99-.812-1.791-1.814-1.791h-3.393a1.803 1.803 0 0 0-1.815 1.791zm0 10.76v3.35c0 .99.812 1.79 1.815 1.79h3.393a1.802 1.802 0 0 0 1.814-1.79v-3.35c0-.988-.812-1.79-1.814-1.79h-3.393c-1.003 0-1.815.802-1.815 1.79zm-10.902-7.41c0 .989.812 1.79 1.814 1.79h3.394a1.803 1.803 0 0 0 1.814-1.79v-3.35c0-.99-.813-1.791-1.814-1.791h-3.394a1.803 1.803 0 0 0-1.814 1.791zm0 10.76c0 .99.812 1.79 1.814 1.79h3.394a1.803 1.803 0 0 0 1.814-1.79v-3.35c0-.988-.813-1.79-1.814-1.79h-3.394a1.803 1.803 0 0 0-1.814 1.79zm-14.45-28.6c0 2.803 2.3 5.074 5.139 5.074 2.838 0 5.14-2.271 5.14-5.073 0-2.803-2.302-5.073-5.14-5.073-2.839 0-5.14 2.27-5.14 5.073zm-.008 24.052v14.11c0 .323.088.626.24.886h9.813c.152-.26.24-.563.24-.887V49.47c0-.99-.812-1.791-1.815-1.791h-6.663a1.803 1.803 0 0 0-1.815 1.791zm-11.186-6.213c0 .99.812 1.791 1.814 1.791h3.393a1.802 1.802 0 0 0 1.814-1.79v-3.35c0-.99-.812-1.791-1.814-1.791H19.98a1.803 1.803 0 0 0-1.814 1.791zm0 10.761c0 .99.812 1.79 1.814 1.79h3.393a1.802 1.802 0 0 0 1.814-1.79v-3.35c0-.988-.812-1.79-1.814-1.79H19.98a1.803 1.803 0 0 0-1.814 1.79zM7.264 43.257c0 .989.812 1.79 1.815 1.79h3.393a1.803 1.803 0 0 0 1.814-1.79v-3.35c0-.99-.812-1.791-1.814-1.791H9.079a1.803 1.803 0 0 0-1.815 1.791zm0 10.76c0 .99.812 1.79 1.815 1.79h3.393a1.802 1.802 0 0 0 1.814-1.79v-3.35c0-.988-.812-1.79-1.814-1.79H9.079a1.803 1.803 0 0 0-1.815 1.79z"/></g></g></svg>