<svg xmlns="http://www.w3.org/2000/svg" width="48" height="48" viewBox="0 0 48 48"><g><g><path fill="#00a4d3" d="M18.667 21.818V9.6c0-.319.176-.612.46-.766a.907.907 0 0 1 .906.029l9.778 6.11a.87.87 0 0 1 .411.735.87.87 0 0 1-.411.737l-9.778 6.11a.908.908 0 0 1-.905.028.871.871 0 0 1-.461-.765zm1.777-1.59l7.234-4.52-7.234-4.52zM48 0v48H0V0zM1.778 1.745v28.8h44.444v-28.8zm44.444 44.51V32.29H1.778v13.963zm-3.555-6.983a.88.88 0 0 1-.89.873H20.445v1.745a.88.88 0 0 1-.888.874.88.88 0 0 1-.89-.874v-1.745h-3.555a.88.88 0 0 1-.889-.873.88.88 0 0 1 .889-.872h3.556v-1.746a.88.88 0 0 1 .889-.873.88.88 0 0 1 .888.873V38.4h21.334a.88.88 0 0 1 .889.872zM7.11 36.654v5.236a.88.88 0 0 1-.889.874.88.88 0 0 1-.889-.874v-5.236a.88.88 0 0 1 .89-.873.88.88 0 0 1 .888.873zm3.556 0v5.236a.88.88 0 0 1-.89.874.88.88 0 0 1-.888-.874v-5.236a.88.88 0 0 1 .889-.873.88.88 0 0 1 .889.873z"/></g></g></svg>