<svg xmlns="http://www.w3.org/2000/svg" width="46" height="48" viewBox="0 0 46 48"><g><g><path fill="#00a4d3" d="M19.658 3.331A3.337 3.337 0 0 1 23.001 0a3.338 3.338 0 0 1 3.342 3.33c0 1.84-1.5 3.977-3.342 3.977-1.846 0-3.343-2.137-3.343-3.976zM4.334 11.829a3.339 3.339 0 0 1 3.34-3.332 3.337 3.337 0 0 1 3.342 3.332c0 1.84-1.497 3.978-3.341 3.978-1.842 0-3.34-2.137-3.34-3.978zm7.934 27.576h3.07v5.118h-1.275V48H1.288v-3.477H.013v-5.118h3.072l.893-11.08v-8.994c-.133.035-.255.073-.367.107l-.965 8.645a1.317 1.317 0 0 1-1.458 1.164A1.326 1.326 0 0 1 .02 27.79l1.06-9.492c.006-.068.042-.127.06-.193.023-.086.04-.172.08-.255.05-.098.121-.179.193-.261.036-.04.06-.088.102-.124.11-.098.239-.169.376-.225.018-.01.032-.024.052-.032l.02-.007c.027-.008.05-.021.076-.027.54-.19 3.28-1.1 5.635-1.1 2.57 0 5.606 1.088 5.736 1.134.057.02.096.063.15.092.09.046.18.091.256.155.064.057.107.122.16.19.055.063.11.13.152.202.043.086.061.178.087.27.014.065.05.117.057.181l1.057 9.492a1.322 1.322 0 0 1-2.626.293l-.962-8.645c-.111-.034-.233-.072-.366-.107v8.994zm-5.232-9.571l-.771 9.57h2.823l-.772-9.57c-.196.088-.412.14-.641.14-.227 0-.442-.052-.64-.14zm27.947-20.13a3.336 3.336 0 0 1 3.34-3.332 3.337 3.337 0 0 1 3.342 3.332c0 1.84-1.497 3.976-3.342 3.976-1.844 0-3.34-2.135-3.34-3.976zm-4.321 26.322h-1.27V48H16.61V36.024H15.34v-5.117h3.068l.895-11.082v-7.631a1.319 1.319 0 0 1-.53.127 1.33 1.33 0 0 1-1.1-.587l-6.34-9.49a1.315 1.315 0 0 1 .369-1.827 1.322 1.322 0 0 1 1.827.366l5.069 7.58c1.049-.338 2.746-.786 4.403-.786 1.652 0 3.353.447 4.404.787L32.47.784a1.32 1.32 0 0 1 2.196 1.461l-6.34 9.49a1.335 1.335 0 0 1-1.101.587c-.18 0-.357-.051-.526-.127v7.631l.894 11.083h3.068zm-8.3-14.691l-.773 9.574h2.823l-.772-9.574a1.555 1.555 0 0 1-1.278 0zM45.986 37.28v5.117h-1.274V48H31.936v-5.603h-1.275V37.28h3.07l.896-11.078v-8.996c-.135.036-.257.074-.367.105l-.964 8.643a1.321 1.321 0 0 1-1.46 1.165 1.314 1.314 0 0 1-1.163-1.452l1.055-9.493c.007-.071.043-.129.06-.193.026-.087.04-.172.08-.255.051-.098.122-.178.194-.263.036-.041.06-.088.103-.125.11-.096.237-.169.374-.226.021-.007.03-.02.051-.03l.023-.01.073-.023c.542-.187 3.284-1.1 5.635-1.1 2.572 0 5.607 1.09 5.737 1.134.056.022.095.065.15.094.09.046.18.091.257.153.063.055.108.124.16.188.053.068.111.13.15.206.044.087.063.177.087.27.017.06.05.113.056.18l1.06 9.493a1.318 1.318 0 0 1-1.165 1.453c-.054.003-.1.007-.148.007a1.317 1.317 0 0 1-1.312-1.172l-.965-8.644c-.11-.03-.233-.068-.366-.104v8.996l.895 11.078zm-8.302-9.574l-.773 9.574h2.825l-.77-9.574a1.552 1.552 0 0 1-1.282 0z"/></g></g></svg>