<svg xmlns="http://www.w3.org/2000/svg" width="53" height="48" viewBox="0 0 53 48"><g><g><path fill="#00a4d3" d="M15.424 34.846a4.273 4.273 0 0 1-.912 3.16 4.27 4.27 0 0 1-3.356 1.617 4.306 4.306 0 0 1-2.673-.936 4.275 4.275 0 0 1-1.594-2.886 4.278 4.278 0 0 1 .912-3.164 4.272 4.272 0 0 1 3.356-1.614c.967 0 1.916.332 2.674.936a4.273 4.273 0 0 1 1.593 2.887zm-1.944.221a2.312 2.312 0 0 0-.863-1.561 2.32 2.32 0 0 0-1.46-.51 2.33 2.33 0 0 0-2.324 2.584 2.31 2.31 0 0 0 .864 1.56c.419.334.924.51 1.459.51.718 0 1.386-.32 1.831-.88.387-.483.562-1.088.493-1.703zm13.68-15.644a4.274 4.274 0 0 1-.189-3.28 4.262 4.262 0 0 1 2.195-2.462 4.252 4.252 0 0 1 1.858-.426c1.64 0 3.16.956 3.87 2.434a4.276 4.276 0 0 1 .19 3.278 4.269 4.269 0 0 1-2.193 2.465 4.25 4.25 0 0 1-1.856.425c-1.64 0-3.16-.955-3.874-2.434zm1.76-.863a2.36 2.36 0 0 0 2.114 1.324 2.32 2.32 0 0 0 1.014-.232 2.315 2.315 0 0 0 1.19-1.335 2.305 2.305 0 0 0-.103-1.766 2.353 2.353 0 0 0-2.11-1.323c-.354 0-.695.078-1.017.233-.563.27-.986.744-1.19 1.333a2.302 2.302 0 0 0 .102 1.766zm-11.222-5.587a4.274 4.274 0 0 1-.543-3.236 4.27 4.27 0 0 1 4.18-3.342c.322 0 .645.037.961.11a4.266 4.266 0 0 1 2.687 1.913c.605.97.8 2.12.547 3.235a4.274 4.274 0 0 1-4.185 3.342c-.32 0-.642-.037-.957-.108a4.262 4.262 0 0 1-2.69-1.914zm1.657-1.05c.332.531.851.9 1.463 1.04.174.039.351.06.527.06 1.08 0 2.038-.762 2.277-1.811.136-.6.031-1.22-.296-1.743a2.323 2.323 0 0 0-1.463-1.041 2.378 2.378 0 0 0-.528-.06 2.32 2.32 0 0 0-2.274 1.812c-.137.6-.033 1.219.294 1.743zm-9.412 6.36a4.276 4.276 0 0 1-3.359-1.615 4.28 4.28 0 0 1-.913-3.167 4.27 4.27 0 0 1 1.593-2.884 4.31 4.31 0 0 1 2.672-.934c1.313 0 2.537.588 3.358 1.614.716.898 1.039 2.02.912 3.162a4.295 4.295 0 0 1-4.263 3.825zm0-1.973a2.31 2.31 0 0 0 1.455-.509c.488-.39.794-.944.863-1.563a2.31 2.31 0 0 0-.491-1.705 2.337 2.337 0 0 0-1.834-.878 2.32 2.32 0 0 0-1.46.51c-.485.387-.791.94-.86 1.557a2.334 2.334 0 0 0 2.328 2.588zm41.282-3.997c-1.187 1.751-2.955 4.055-5.253 6.848a240.115 240.115 0 0 1-4.334 5.106 23.82 23.82 0 0 1-7.027 16.71C30.079 45.508 24.054 48 17.645 48h-.006c-3.532 0-7.826-1.247-11.207-3.252C2.289 42.29.007 39.008.006 35.503.005 31.27 2.372 29.5 4.275 28.079c1.55-1.16 2.775-2.074 2.774-4.082 0-2.008-1.226-2.923-2.777-4.084C2.369 18.491.002 16.72 0 12.488 0 8.983 2.28 5.7 6.42 3.245 9.8 1.243 14.091 0 17.623 0h.004a23.818 23.818 0 0 1 14.381 4.784 24.258 24.258 0 0 1 8.079 10.731l.547-.47c9.004-7.725 10.487-7.725 11.045-7.725.476 0 .778.205.947.377.86.874.172 2.297-1.401 4.617zM39.527 26.661c-2.527 2.833-5.082 5.582-7.318 7.864-.661 2.875-1.978 5.02-3.919 6.372-1.575 1.097-3.53 1.654-5.807 1.654-3.27 0-6.067-1.152-6.184-1.201a.988.988 0 0 1 .296-1.895c1.829-.148 2.142-1.303 2.624-3.691.566-2.806 1.34-6.625 7.024-7.367 3.423-3.46 8.018-7.767 12.261-11.503a22.254 22.254 0 0 0-7.662-10.528 21.89 21.89 0 0 0-13.216-4.394h-.003c-3.154 0-7.161 1.167-10.21 2.974-2.038 1.208-5.457 3.794-5.456 7.542 0 3.24 1.69 4.503 3.48 5.84 1.673 1.251 3.568 2.668 3.569 5.668 0 3.001-1.894 4.418-3.566 5.667-1.789 1.337-3.478 2.6-3.477 5.839.002 6.103 9.365 10.524 15.676 10.526h.007c5.89 0 11.424-2.29 15.587-6.45 3.53-3.527 5.712-8.04 6.294-12.917zM26.34 30.372c-4.159.6-4.667 3.12-5.205 5.785-.282 1.399-.608 3.013-1.652 4.086.874.186 1.913.336 2.998.336h.001c4.115 0 6.724-2.1 7.76-6.241zM50.443 9.9c-1.301.793-3.852 2.613-8.719 6.798-.478.412-.964.834-1.453 1.261-4.194 3.67-8.688 7.862-12.192 11.378l2.64 2.682.598.608c3.864-3.977 8.559-9.208 12.437-13.866 4.122-4.95 5.912-7.541 6.689-8.86z"/></g></g></svg>