<svg xmlns="http://www.w3.org/2000/svg" width="49" height="46" viewBox="0 0 49 46"><g><g><path fill="#00a4d3" d="M49 10.733v27.6C49 42.626 45.631 46 41.344 46H7.656C3.37 46 0 42.626 0 38.333v-27.6C0 6.44 3.369 3.066 7.656 3.066h6.125V1.533c0-.92.613-1.533 1.531-1.533.92 0 1.532.613 1.532 1.533v1.533h15.312V1.533c0-.92.613-1.533 1.531-1.533.92 0 1.532.613 1.532 1.533v1.533h6.125C45.63 3.066 49 6.44 49 10.733zm-45.938 4.6h42.876v-4.6c0-2.453-2.144-4.6-4.594-4.6h-6.125v1.534c0 .92-.612 1.533-1.531 1.533-.92 0-1.532-.614-1.532-1.533V6.133H16.844v1.534c0 .92-.613 1.533-1.532 1.533-.918 0-1.53-.614-1.53-1.533V6.133H7.655c-2.45 0-4.594 2.147-4.594 4.6zM45.937 18.4H3.062v19.933c0 2.453 2.144 4.6 4.594 4.6h33.688c2.45 0 4.593-2.147 4.593-4.6zM8.575 37.413c-.613-.613-.919-1.533-.919-2.147 0-.92.306-1.533.919-2.146 1.225-1.227 3.063-1.227 4.287 0 .613.613.92 1.533.92 2.146 0 .614-.307 1.534-.92 2.147-.612.613-1.225.92-2.143.92-.919 0-1.532-.307-2.144-.92zm0-9.2c-.613-.613-.919-1.227-.919-2.146 0-.92.306-1.534.919-2.147 1.225-1.227 3.063-1.227 4.287 0 .613.613.92 1.533.92 2.147 0 .613-.307 1.533-.92 2.146-.612.614-1.225.92-2.143.92-.919 0-1.532-.306-2.144-.92zm9.187 9.2c-.612-.613-.918-1.533-.918-2.147 0-.613.306-1.533.918-2.146 1.226-1.227 3.063-1.227 4.288 0 .612.613.919 1.533.919 2.146 0 .614-.307 1.534-.919 2.147-.612.613-1.225.92-2.144.92-.918 0-1.531-.307-2.144-.92zm0-9.2c-.612-.613-.918-1.533-.918-2.146 0-.614.306-1.534.918-2.147 1.226-1.227 3.063-1.227 4.288 0 .612.613.919 1.533.919 2.147 0 .613-.307 1.533-.919 2.146-.612.614-1.225.92-2.144.92-.918 0-1.531-.306-2.144-.92zm9.188 9.2c-.613-.613-.919-1.533-.919-2.147 0-.613.306-1.533.919-2.146 1.225-1.227 3.063-1.227 4.287 0 .613.613.92 1.226.92 2.146 0 .92-.307 1.534-.92 2.147-.612.613-1.225.92-2.143.92-.92 0-1.532-.307-2.144-.92zm0-9.2c-.613-.613-.919-1.533-.919-2.146 0-.614.306-1.534.919-2.147 1.225-1.227 3.063-1.227 4.287 0 .613.613.92 1.533.92 2.147 0 .92-.307 1.533-.92 2.146-.612.614-1.225.92-2.143.92-.92 0-1.532-.306-2.144-.92zm9.187 9.2c-.612-.613-.918-1.533-.918-2.147 0-.92.306-1.533.918-2.146 1.225-1.227 3.063-1.227 4.288 0 .612.613.919 1.533.919 2.146 0 .614-.307 1.534-.919 2.147-.612.613-1.225.92-2.144.92s-1.531-.307-2.144-.92zm0-9.2c-.612-.613-.918-1.533-.918-2.146 0-.614.306-1.534.918-2.147 1.225-1.227 3.063-1.227 4.288 0 .612.613.919 1.533.919 2.147 0 .92-.307 1.533-.919 2.146-.612.614-1.225.92-2.144.92s-1.531-.306-2.144-.92z"/></g></g></svg>