<svg xmlns="http://www.w3.org/2000/svg" width="47" height="48" viewBox="0 0 47 48"><g><g><path fill="#00a4d3" d="M.733 14.089a6.324 6.324 0 0 1 6.332-6.324 6.319 6.319 0 0 1 6.315 6.324 6.315 6.315 0 0 1-6.315 6.32 6.32 6.32 0 0 1-6.332-6.32zm28.72 8.864l-5.294 8.684a2.146 2.146 0 0 1-2.879.756l-7.23-3.43.534 18.887L1.02 48 .087 28.962s-1.338-6.172 6.368-7.072h1.21c3.972 0 5.275.782 7.95 2.43l5.95 3.324 4.222-6.92a2.148 2.148 0 0 1 2.946-.718 2.148 2.148 0 0 1 .72 2.947zm-17.85-1.302a10.51 10.51 0 0 0-1.541-.286v-.997a7.146 7.146 0 0 0 1.54-1.018zm35.4 4.593H28.22l.938-1.542h16.306V1.54H11.602v7.289a7.038 7.038 0 0 0-1.54-1.017V0h36.94zm-26.588 0l-2.753-1.542h4.931l-.944 1.542zm9.118-6.596l-.75-.43 5.172-9.014.741.427z"/></g></g></svg>